# xmcd
#
# Track frame offsets: 
#        150
#        18109
#        36532
#        50895
#        65372
#        79146
#        93805
#        108538
#        121932
#        136907
#        157479
#
# Disc length: 2300 seconds
#
# Revision: 8
# Processed by: cddbd v1.5.2PL0 Copyright (c) Steve Scherf et al.
# Submitted via: ExactAudioCopyFreeDBPlugin 1.0
#
DISCID=9608fa0b
DTITLE=Mena, Maria - Cause and effect
DYEAR=2008
DGENRE=Folk
TTITLE0=Power trip ballad
TTITLE1=Belly up
TTITLE2=All this time (Pick-me-up song)
TTITLE3=Cause and effect
TTITLE4=I'm on your side
TTITLE5=Eyesore
TTITLE6=Where were you
TTITLE7=I'm in love
TTITLE8=Self-fulfilling prophecy
TTITLE9=I was made for lovin' you
TTITLE10=Dear...
EXTD=
EXTT0=
EXTT1=
EXTT2=
EXTT3=
EXTT4=
EXTT5=
EXTT6=
EXTT7=
EXTT8=
EXTT9=
EXTT10=
PLAYORDER=
